<?xml version="1.0" encoding="utf-8"?>
<!-- Generator: Adobe Illustrator 25.1.0, SVG Export Plug-In . SVG Version: 6.00 Build 0)  -->
<svg version="1.1" id="Calque_1" xmlns="http://www.w3.org/2000/svg" xmlns:xlink="http://www.w3.org/1999/xlink" x="0px" y="0px"
	 viewBox="0 0 22 18" enable-background="new 0 0 22 18" xml:space="preserve">
<path d="M10,5.2C6.9,5.2,4.2,7,2.1,9.6C2,9.9,2,10.2,2.1,10.4c2.1,2.8,4.8,4.4,7.9,4.4s5.8-1.7,7.9-4.4c0.1-0.2,0.1-0.6,0-0.8
	C15.9,7,13.1,5.2,10,5.2z M10.2,13.4c-2.1,0.1-3.7-1.6-3.6-3.6c0.1-1.7,1.5-3.1,3.1-3.1c2.1-0.1,3.7,1.6,3.6,3.6
	C13.2,12,12,13.3,10.2,13.4z M10.1,11.9C9,12,8.2,11.1,8.2,9.9C8.2,9,9,8.3,9.9,8.2c1.1-0.1,1.9,0.8,1.9,1.9
	C11.7,11.1,11,11.8,10.1,11.9z"/>
</svg>
