<?xml version="1.0" encoding="utf-8"?>
<!-- Generator: Adobe Illustrator 25.2.0, SVG Export Plug-In . SVG Version: 6.00 Build 0)  -->
<svg version="1.1" id="Layer_1" xmlns="http://www.w3.org/2000/svg" xmlns:xlink="http://www.w3.org/1999/xlink" x="0px" y="0px"
	 viewBox="0 0 512 512" enable-background="new 0 0 512 512" xml:space="preserve">
<path fill="#279B85" d="M256,0.2v264l89.8-129.7l46,31.9L256,362.5v149.4c141.4,0,256-114.5,256-255.8S397.4,0.2,256,0.2z"/>
<path fill="#32BEA6" d="M235.5,392.1l-121-94.3l34.4-44.2l74.3,57.9l32.8-47.4V0.2C114.6,0.2,0,114.7,0,256s114.6,255.8,256,255.8
	V362.5L235.5,392.1z"/>
<polygon fill="#DAD0CB" points="391.9,166.4 345.8,134.5 256,264.2 256,362.5 "/>
<polygon fill="#FFFFFF" points="148.8,253.6 114.4,297.8 235.5,392.1 256,362.5 256,264.2 223.2,311.5 "/>
</svg>
